<?xml version="1.0" standalone="no"?>
<!DOCTYPE svg PUBLIC "-//W3C//DTD SVG 20010904//EN"
 "http://www.w3.org/TR/2001/REC-SVG-20010904/DTD/svg10.dtd">
<svg version="1.0" xmlns="http://www.w3.org/2000/svg"
 width="64.000000pt" height="64.000000pt" viewBox="0 0 64.000000 64.000000"
 preserveAspectRatio="xMidYMid meet">

<g transform="translate(0.000000,64.000000) scale(0.100000,-0.100000)"
fill="#000000" stroke="none">
<path d="M226 594 c-71 -22 -159 -112 -180 -184 -34 -115 -12 -206 73 -291 85
-85 176 -107 291 -73 75 22 162 109 184 184 34 115 12 206 -73 291 -85 84
-180 108 -295 73z m226 -41 c92 -51 146 -155 135 -261 -15 -145 -149 -254
-295 -239 -145 15 -254 149 -239 295 11 102 92 201 191 232 57 17 150 5 208
-27z"/>
<path d="M224 526 c-84 -39 -134 -118 -134 -212 0 -40 39 -136 60 -149 19 -12
24 4 7 23 -26 29 -47 88 -47 134 1 114 99 208 218 208 17 0 32 5 32 10 0 19
-85 10 -136 -14z"/>
<path d="M390 530 c0 -12 28 -25 36 -17 3 3 -4 10 -15 17 -15 7 -21 7 -21 0z"/>
<path d="M450 494 c0 -4 13 -21 29 -40 62 -70 65 -198 7 -263 -22 -25 -22 -48
1 -30 28 24 63 111 63 159 0 49 -29 122 -62 158 -21 21 -38 29 -38 16z"/>
<path d="M310 380 l0 -50 -50 0 c-27 0 -50 -4 -50 -10 0 -5 23 -10 50 -10 l50
0 0 -50 c0 -27 5 -50 10 -50 6 0 10 23 10 50 l0 50 50 0 c28 0 50 5 50 10 0 6
-22 10 -50 10 l-50 0 0 50 c0 28 -4 50 -10 50 -5 0 -10 -22 -10 -50z"/>
<path d="M211 146 c-8 -9 -11 -19 -7 -23 9 -9 29 13 24 27 -2 8 -8 7 -17 -4z"/>
<path d="M410 148 c0 -18 18 -34 28 -24 3 4 -2 14 -11 23 -16 16 -17 16 -17 1z"/>
<path d="M260 114 c0 -8 5 -12 10 -9 6 3 10 10 10 16 0 5 -4 9 -10 9 -5 0 -10
-7 -10 -16z"/>
<path d="M310 110 c0 -11 5 -20 10 -20 6 0 10 9 10 20 0 11 -4 20 -10 20 -5 0
-10 -9 -10 -20z"/>
<path d="M360 121 c0 -6 5 -13 10 -16 6 -3 10 1 10 9 0 9 -4 16 -10 16 -5 0
-10 -4 -10 -9z"/>
</g>
</svg>
