<?xml version="1.0" standalone="no"?>
<!DOCTYPE svg PUBLIC "-//W3C//DTD SVG 20010904//EN"
 "http://www.w3.org/TR/2001/REC-SVG-20010904/DTD/svg10.dtd">
<svg version="1.0" xmlns="http://www.w3.org/2000/svg"
 width="64.000000pt" height="64.000000pt" viewBox="0 0 64.000000 64.000000"
 preserveAspectRatio="xMidYMid meet">

<g transform="translate(0.000000,64.000000) scale(0.100000,-0.100000)"
fill="#000000" stroke="none">
<path d="M265 585 c-28 -27 -34 -82 -12 -104 10 -10 7 -16 -16 -33 -31 -23
-57 -67 -57 -98 0 -18 -6 -20 -74 -20 -67 0 -75 -2 -81 -21 -4 -11 -4 -31 -1
-45 5 -20 13 -24 41 -24 l34 0 3 -112 3 -113 220 0 220 0 3 113 3 112 34 0
c28 0 36 4 41 24 3 14 3 34 -1 45 -6 19 -14 21 -81 21 -68 0 -74 2 -74 20 0
31 -26 75 -57 98 -23 17 -26 23 -15 33 6 7 12 28 12 46 0 47 -37 83 -85 83
-25 0 -44 -8 -60 -25z m99 -10 c43 -43 20 -105 -39 -105 -26 0 -39 6 -51 25
-26 39 4 95 51 95 13 0 30 -7 39 -15z m46 -161 c16 -16 32 -41 35 -56 l7 -28
-127 0 -127 0 6 28 c4 15 21 41 39 58 29 26 39 30 86 28 44 -1 58 -6 81 -30z
m190 -134 c0 -20 -7 -20 -275 -20 -268 0 -275 0 -275 20 0 20 7 20 275 20 268
0 275 0 275 -20z m-80 -140 l0 -100 -195 0 -195 0 0 25 c0 23 4 25 45 25 25 0
45 5 45 10 0 6 -20 10 -45 10 -41 0 -45 2 -45 25 0 24 2 25 64 25 35 0 71 3
80 6 34 13 2 24 -70 24 -72 0 -74 1 -74 25 l0 25 195 0 195 0 0 -100z"/>
</g>
</svg>
