<?xml version="1.0" standalone="no"?>
<!DOCTYPE svg PUBLIC "-//W3C//DTD SVG 20010904//EN"
 "http://www.w3.org/TR/2001/REC-SVG-20010904/DTD/svg10.dtd">
<svg version="1.0" xmlns="http://www.w3.org/2000/svg"
 width="96.000000pt" height="96.000000pt" viewBox="0 0 96.000000 96.000000"
 preserveAspectRatio="xMidYMid meet">

<g transform="translate(0.000000,96.000000) scale(0.100000,-0.100000)"
fill="#000000" stroke="none">
<path d="M383 860 c-4 -16 -14 -20 -45 -20 -54 0 -91 -22 -124 -74 -22 -35
-35 -46 -59 -48 -25 -2 -30 -7 -30 -28 l0 -25 301 -3 300 -2 -12 -113 c-18
-160 -18 -206 2 -214 29 -11 40 22 54 165 7 77 15 144 19 150 3 5 15 11 26 13
14 3 20 12 20 29 0 20 -5 26 -30 28 -24 2 -37 13 -59 48 -33 52 -70 74 -124
74 -31 0 -41 4 -45 20 -5 18 -14 20 -97 20 -83 0 -92 -2 -97 -20z m297 -107
l22 -28 -111 -3 c-61 -1 -161 -1 -222 0 l-111 3 22 28 21 27 179 0 179 0 21
-27z"/>
<path d="M192 597 c-8 -9 -6 -65 8 -197 33 -311 23 -300 278 -300 196 0 224 7
248 65 20 48 19 124 -2 132 -23 9 -44 -23 -44 -67 0 -65 -14 -70 -202 -70
-145 0 -167 2 -180 18 -11 12 -22 77 -37 216 -19 186 -26 215 -52 216 -4 0
-11 -6 -17 -13z"/>
</g>
</svg>
