<?xml version="1.0" standalone="no"?>
<!DOCTYPE svg PUBLIC "-//W3C//DTD SVG 20010904//EN"
 "http://www.w3.org/TR/2001/REC-SVG-20010904/DTD/svg10.dtd">
<svg version="1.0" xmlns="http://www.w3.org/2000/svg"
 width="96.000000pt" height="96.000000pt" viewBox="0 0 96.000000 96.000000"
 preserveAspectRatio="xMidYMid meet">

<g transform="translate(0.000000,96.000000) scale(0.100000,-0.100000)"
fill="#000000" stroke="none">
<path d="M604 668 c-147 -148 -173 -179 -179 -211 l-6 -38 38 7 c32 5 63 31
206 173 92 91 170 176 173 189 8 27 -11 52 -39 52 -14 0 -81 -60 -193 -172z"/>
<path d="M198 804 c-54 -29 -58 -50 -58 -324 0 -361 -21 -340 340 -340 355 0
342 -10 338 276 -3 165 -5 188 -20 198 -13 8 -23 8 -35 0 -16 -10 -19 -34 -23
-200 l-5 -189 -255 0 -255 0 0 255 0 255 189 5 c166 4 190 7 200 23 8 12 8 22
0 35 -10 15 -32 17 -200 19 -152 2 -194 0 -216 -13z"/>
</g>
</svg>
