<?xml version="1.0" standalone="no"?>
<!DOCTYPE svg PUBLIC "-//W3C//DTD SVG 20010904//EN"
 "http://www.w3.org/TR/2001/REC-SVG-20010904/DTD/svg10.dtd">
<svg version="1.0" xmlns="http://www.w3.org/2000/svg"
 width="100.000000pt" height="100.000000pt" viewBox="0 0 100.000000 100.000000"  preserveAspectRatio="xMidYMid meet"> <g transform="translate(0.000000,100.000000) scale(0.100000,-0.100000)" fill="#000000" stroke="none">
<path d="M150 845 l-24 -26 159 -159 160 -160 -160 -160 -160 -160 28 -27 27 -28 160 160 160 160 160 -160 160 -160 27 28 28 27 -160 160 -160 160 160 160 160 160
 -28 27 -27 28 -160 -160 -160 -160 -158 158 c-86 86 -160 157 -163 157 -3 0 -16 -11 -29 -25z"/>
</g>
</svg>
