<?xml version="1.0" standalone="no"?>
<!DOCTYPE svg PUBLIC "-//W3C//DTD SVG 20010904//EN"
 "http://www.w3.org/TR/2001/REC-SVG-20010904/DTD/svg10.dtd">
<svg version="1.0" xmlns="http://www.w3.org/2000/svg"
 width="48.000000pt" height="48.000000pt" viewBox="0 0 48.000000 48.000000"
 preserveAspectRatio="xMidYMid meet">

<g transform="translate(0.000000,48.000000) scale(0.100000,-0.100000)"
fill="#000000" stroke="none">
<path d="M159 434 c-19 -23 -19 -119 1 -119 11 0 16 14 18 53 l3 52 100 0 99
0 0 -179 c0 -154 -2 -180 -16 -185 -22 -9 -157 -7 -171 2 -6 4 -13 30 -15 57
-2 36 -7 50 -18 50 -11 0 -15 -12 -15 -53 1 -79 14 -87 135 -87 139 0 134 -7
138 203 3 225 9 216 -134 220 -93 2 -113 0 -125 -14z"/>
<path d="M67 292 c-20 -21 -37 -45 -37 -53 0 -18 70 -89 88 -89 19 0 14 25 -9
46 -21 19 -21 19 47 24 41 3 69 10 72 18 3 9 -16 12 -74 12 l-78 0 27 28 c15
15 27 33 27 40 0 23 -26 12 -63 -26z"/>
</g>
</svg>
